<svg xmlns="http://www.w3.org/2000/svg" viewBox="0 0 512 512" style="height: 512px; width: 512px;"><defs><linearGradient x1="0" x2="1" y1="0" y2="1" id="gradient-0"><stop offset="0%" stop-color="#718fcb" stop-opacity="1"></stop><stop offset="100%" stop-color="#2c1243" stop-opacity="1"></stop></linearGradient></defs><rect fill="url(#gradient-0)" height="512" width="512" rx="32" ry="32"></rect><g class="" transform="translate(0,0)" style="touch-action: none;"><path d="M256 18.365L50.14 136 256 253.635 461.86 136 256 18.365zm-154 168L50.14 216 256 333.635 461.86 216 410 186.365l-154 88-154-88zm0 80L50.14 296 256 413.635 461.86 296 410 266.365l-154 88-154-88zm0 80L50.14 376 256 493.635 461.86 376 410 346.365l-154 88-154-88z" fill="#fff" fill-opacity="1"></path></g></svg>